<?xml version="1.0" encoding="UTF-8"?>
<!-- Created with Inkscape (http://www.inkscape.org/) -->
<svg width="302.35mm" height="294.64mm" version="1.1" viewBox="0 0 302.35 294.64" xmlns="http://www.w3.org/2000/svg" xmlns:cc="http://creativecommons.org/ns#" xmlns:dc="http://purl.org/dc/elements/1.1/" xmlns:rdf="http://www.w3.org/1999/02/22-rdf-syntax-ns#" xmlns:xlink="http://www.w3.org/1999/xlink">
 <metadata>
  <rdf:RDF>
   <cc:Work rdf:about="">
    <dc:format>image/svg+xml</dc:format>
    <dc:type rdf:resource="http://purl.org/dc/dcmitype/StillImage"/>
    <dc:title/>
   </cc:Work>
  </rdf:RDF>
 </metadata>
 <g transform="translate(-53.689 -165.55)">
  <image x="53.689" y="176.9" width="42" height="42" preserveAspectRatio="none" xlink:href="..\village.svg"/>
  <image x="96.022" y="176.9" width="42" height="42" preserveAspectRatio="none" xlink:href="..\village.svg"/>
  <image x="96.022" y="219.23" width="42" height="42" preserveAspectRatio="none" xlink:href="..\village.svg"/>
  <image x="138.36" y="219.23" width="42" height="42" preserveAspectRatio="none" xlink:href="..\village.svg"/>
  <image x="96.022" y="261.56" width="42" height="42" preserveAspectRatio="none" xlink:href="..\village.svg"/>
  <image x="138.36" y="261.56" width="42" height="42" preserveAspectRatio="none" xlink:href="..\village.svg"/>
  <path d="m156.97 191.24 18.038 21.657 34.637-41.464-4.9727-5.8764-29.664 35.505-13.135-15.739z" fill="#b3b3b3" stroke-width=".11184"/>
  <image x="271.7" y="219.23" width="42" height="42" preserveAspectRatio="none" xlink:href="..\village.svg"/>
  <image x="314.04" y="219.23" width="42" height="42" preserveAspectRatio="none" xlink:href="..\village.svg"/>
  <image x="314.04" y="261.56" width="42" height="42" preserveAspectRatio="none" xlink:href="..\village.svg"/>
  <g transform="matrix(.43735 0 0 .50766 211.94 213.33)" fill="#b3b3b3">
   <g fill="#b3b3b3">
    <path d="m0.65 91.928c1.221 2.701 3.881 4.3 6.665 4.3 1.006 0 2.029-0.209 3.006-0.65l88.917-40.195c2.688-1.216 4.381-3.925 4.295-6.873-0.085-2.948-1.934-5.554-4.687-6.609l-88.917-34.107c-3.759-1.442-7.996 0.436-9.44 4.207-1.447 3.769 0.438 7.995 4.207 9.44l72.569 27.834-72.966 32.98c-3.679 1.665-5.311 5.994-3.649 9.673z" fill="#b3b3b3"/>
   </g>
  </g>
  <image x="53.689" y="333.53" width="42" height="42" preserveAspectRatio="none" xlink:href="..\village.svg"/>
  <image x="96.022" y="333.53" width="42" height="42" preserveAspectRatio="none" xlink:href="..\village.svg"/>
  <image x="96.022" y="375.86" width="42" height="42" preserveAspectRatio="none" xlink:href="..\village.svg"/>
  <image x="138.36" y="375.86" width="42" height="42" preserveAspectRatio="none" xlink:href="..\village.svg"/>
  <image x="96.022" y="418.2" width="42" height="42" preserveAspectRatio="none" xlink:href="..\village.svg"/>
  <image x="138.36" y="418.2" width="42" height="42" preserveAspectRatio="none" xlink:href="..\village.svg"/>
  <g transform="translate(34.276 146.45)">
   <path d="m60.087 203.29c-0.25298-0.76146-0.94707-1.3023-1.7682-1.3743l-11.154-0.98553-4.4107-10.046c-0.32522-0.73621-1.0659-1.2128-1.8888-1.2128s-1.5636 0.47656-1.8888 1.2145l-4.4107 10.044-11.156 0.98553c-0.81969 0.0738-1.512 0.61285-1.7665 1.3743-0.25446 0.76145-0.01946 1.5966 0.60062 2.1231l8.4313 7.1951-2.4862 10.657c-0.18192 0.78355 0.13062 1.5935 0.79876 2.0635 0.35913 0.25247 0.7793 0.38101 1.203 0.38101 0.36532 0 0.7277-0.0958 1.0529-0.28519l9.6217-5.5956 9.6181 5.5956c0.70382 0.412 1.591 0.37442 2.2577-0.0958 0.66843-0.4714 0.98068-1.2816 0.79876-2.0635l-2.4862-10.657 8.4313-7.1937c0.62008-0.52792 0.85684-1.3617 0.60239-2.1246z" fill="#ffc107" stroke-width=".074459"/>
   <text x="35.401997" y="212.78052" fill="#000000" font-family="sans-serif" font-size="14.111px" font-weight="bold" letter-spacing="0px" stroke-width=".26458" word-spacing="0px" style="font-feature-settings:normal;font-variant-caps:normal;font-variant-ligatures:normal;font-variant-numeric:normal;line-height:1.25" xml:space="preserve"><tspan x="35.401997" y="212.78052" font-family="sans-serif" font-size="14.111px" font-weight="bold" stroke-width=".26458" style="font-feature-settings:normal;font-variant-caps:normal;font-variant-ligatures:normal;font-variant-numeric:normal">1</tspan></text>
  </g>
  <g transform="translate(76.08 146.45)">
   <path d="m60.087 203.29c-0.25298-0.76146-0.94707-1.3023-1.7682-1.3743l-11.154-0.98553-4.4107-10.046c-0.32522-0.73621-1.0659-1.2128-1.8888-1.2128s-1.5636 0.47656-1.8888 1.2145l-4.4107 10.044-11.156 0.98553c-0.81969 0.0738-1.512 0.61285-1.7665 1.3743-0.25446 0.76145-0.01946 1.5966 0.60062 2.1231l8.4313 7.1951-2.4862 10.657c-0.18192 0.78355 0.13062 1.5935 0.79876 2.0635 0.35913 0.25247 0.7793 0.38101 1.203 0.38101 0.36532 0 0.7277-0.0958 1.0529-0.28519l9.6217-5.5956 9.6181 5.5956c0.70382 0.412 1.591 0.37442 2.2577-0.0958 0.66843-0.4714 0.98068-1.2816 0.79876-2.0635l-2.4862-10.657 8.4313-7.1937c0.62008-0.52792 0.85684-1.3617 0.60239-2.1246z" fill="#ffc107" stroke-width=".074459"/>
   <text x="35.401997" y="212.78052" fill="#000000" font-family="sans-serif" font-size="14.111px" font-weight="bold" letter-spacing="0px" stroke-width=".26458" word-spacing="0px" style="font-feature-settings:normal;font-variant-caps:normal;font-variant-ligatures:normal;font-variant-numeric:normal;line-height:1.25" xml:space="preserve"><tspan x="35.401997" y="212.78052" font-family="sans-serif" font-size="14.111px" font-weight="bold" stroke-width=".26458" style="font-feature-settings:normal;font-variant-caps:normal;font-variant-ligatures:normal;font-variant-numeric:normal">1</tspan></text>
  </g>
  <g transform="translate(76.08 188.25)">
   <path d="m60.087 203.29c-0.25298-0.76146-0.94707-1.3023-1.7682-1.3743l-11.154-0.98553-4.4107-10.046c-0.32522-0.73621-1.0659-1.2128-1.8888-1.2128s-1.5636 0.47656-1.8888 1.2145l-4.4107 10.044-11.156 0.98553c-0.81969 0.0738-1.512 0.61285-1.7665 1.3743-0.25446 0.76145-0.01946 1.5966 0.60062 2.1231l8.4313 7.1951-2.4862 10.657c-0.18192 0.78355 0.13062 1.5935 0.79876 2.0635 0.35913 0.25247 0.7793 0.38101 1.203 0.38101 0.36532 0 0.7277-0.0958 1.0529-0.28519l9.6217-5.5956 9.6181 5.5956c0.70382 0.412 1.591 0.37442 2.2577-0.0958 0.66843-0.4714 0.98068-1.2816 0.79876-2.0635l-2.4862-10.657 8.4313-7.1937c0.62008-0.52792 0.85684-1.3617 0.60239-2.1246z" fill="#ffc107" stroke-width=".074459"/>
   <text x="35.401997" y="212.78052" fill="#000000" font-family="sans-serif" font-size="14.111px" font-weight="bold" letter-spacing="0px" stroke-width=".26458" word-spacing="0px" style="font-feature-settings:normal;font-variant-caps:normal;font-variant-ligatures:normal;font-variant-numeric:normal;line-height:1.25" xml:space="preserve"><tspan x="35.401997" y="212.78052" font-family="sans-serif" font-size="14.111px" font-weight="bold" stroke-width=".26458" style="font-feature-settings:normal;font-variant-caps:normal;font-variant-ligatures:normal;font-variant-numeric:normal">1</tspan></text>
  </g>
  <g transform="translate(76.08 231.11)">
   <path d="m60.087 203.29c-0.25298-0.76146-0.94707-1.3023-1.7682-1.3743l-11.154-0.98553-4.4107-10.046c-0.32522-0.73621-1.0659-1.2128-1.8888-1.2128s-1.5636 0.47656-1.8888 1.2145l-4.4107 10.044-11.156 0.98553c-0.81969 0.0738-1.512 0.61285-1.7665 1.3743-0.25446 0.76145-0.01946 1.5966 0.60062 2.1231l8.4313 7.1951-2.4862 10.657c-0.18192 0.78355 0.13062 1.5935 0.79876 2.0635 0.35913 0.25247 0.7793 0.38101 1.203 0.38101 0.36532 0 0.7277-0.0958 1.0529-0.28519l9.6217-5.5956 9.6181 5.5956c0.70382 0.412 1.591 0.37442 2.2577-0.0958 0.66843-0.4714 0.98068-1.2816 0.79876-2.0635l-2.4862-10.657 8.4313-7.1937c0.62008-0.52792 0.85684-1.3617 0.60239-2.1246z" fill="#ffc107" stroke-width=".074459"/>
   <text x="35.401997" y="212.78052" fill="#000000" font-family="sans-serif" font-size="14.111px" font-weight="bold" letter-spacing="0px" stroke-width=".26458" word-spacing="0px" style="font-feature-settings:normal;font-variant-caps:normal;font-variant-ligatures:normal;font-variant-numeric:normal;line-height:1.25" xml:space="preserve"><tspan x="35.401997" y="212.78052" font-family="sans-serif" font-size="14.111px" font-weight="bold" stroke-width=".26458" style="font-feature-settings:normal;font-variant-caps:normal;font-variant-ligatures:normal;font-variant-numeric:normal">1</tspan></text>
  </g>
  <g transform="translate(118.94 188.25)">
   <path d="m60.087 203.29c-0.25298-0.76146-0.94707-1.3023-1.7682-1.3743l-11.154-0.98553-4.4107-10.046c-0.32522-0.73621-1.0659-1.2128-1.8888-1.2128s-1.5636 0.47656-1.8888 1.2145l-4.4107 10.044-11.156 0.98553c-0.81969 0.0738-1.512 0.61285-1.7665 1.3743-0.25446 0.76145-0.01946 1.5966 0.60062 2.1231l8.4313 7.1951-2.4862 10.657c-0.18192 0.78355 0.13062 1.5935 0.79876 2.0635 0.35913 0.25247 0.7793 0.38101 1.203 0.38101 0.36532 0 0.7277-0.0958 1.0529-0.28519l9.6217-5.5956 9.6181 5.5956c0.70382 0.412 1.591 0.37442 2.2577-0.0958 0.66843-0.4714 0.98068-1.2816 0.79876-2.0635l-2.4862-10.657 8.4313-7.1937c0.62008-0.52792 0.85684-1.3617 0.60239-2.1246z" fill="#ffc107" stroke-width=".074459"/>
   <text x="35.401997" y="212.78052" fill="#000000" font-family="sans-serif" font-size="14.111px" font-weight="bold" letter-spacing="0px" stroke-width=".26458" word-spacing="0px" style="font-feature-settings:normal;font-variant-caps:normal;font-variant-ligatures:normal;font-variant-numeric:normal;line-height:1.25" xml:space="preserve"><tspan x="35.401997" y="212.78052" font-family="sans-serif" font-size="14.111px" font-weight="bold" stroke-width=".26458" style="font-feature-settings:normal;font-variant-caps:normal;font-variant-ligatures:normal;font-variant-numeric:normal">1</tspan></text>
  </g>
  <g transform="translate(118.94 231.11)">
   <path d="m60.087 203.29c-0.25298-0.76146-0.94707-1.3023-1.7682-1.3743l-11.154-0.98553-4.4107-10.046c-0.32522-0.73621-1.0659-1.2128-1.8888-1.2128s-1.5636 0.47656-1.8888 1.2145l-4.4107 10.044-11.156 0.98553c-0.81969 0.0738-1.512 0.61285-1.7665 1.3743-0.25446 0.76145-0.01946 1.5966 0.60062 2.1231l8.4313 7.1951-2.4862 10.657c-0.18192 0.78355 0.13062 1.5935 0.79876 2.0635 0.35913 0.25247 0.7793 0.38101 1.203 0.38101 0.36532 0 0.7277-0.0958 1.0529-0.28519l9.6217-5.5956 9.6181 5.5956c0.70382 0.412 1.591 0.37442 2.2577-0.0958 0.66843-0.4714 0.98068-1.2816 0.79876-2.0635l-2.4862-10.657 8.4313-7.1937c0.62008-0.52792 0.85684-1.3617 0.60239-2.1246z" fill="#ffc107" stroke-width=".074459"/>
   <text x="35.401997" y="212.78052" fill="#000000" font-family="sans-serif" font-size="14.111px" font-weight="bold" letter-spacing="0px" stroke-width=".26458" word-spacing="0px" style="font-feature-settings:normal;font-variant-caps:normal;font-variant-ligatures:normal;font-variant-numeric:normal;line-height:1.25" xml:space="preserve"><tspan x="35.401997" y="212.78052" font-family="sans-serif" font-size="14.111px" font-weight="bold" stroke-width=".26458" style="font-feature-settings:normal;font-variant-caps:normal;font-variant-ligatures:normal;font-variant-numeric:normal">1</tspan></text>
  </g>
  <path d="m253.26 338.11c1.0681 0 1.9338-1.0253 1.9338-2.2908 0-1.2654-0.86545-2.2911-1.9338-2.2911h-3.8672c-1.0681 0-1.9338 1.0257-1.9338 2.2911v37.418c0 1.2645 0.86545 2.2905 1.9338 2.2905h3.8672c1.0681 0 1.9338-1.0254 1.9338-2.2905 0-1.2654-0.86545-2.2914-1.9338-2.2914h-1.9336v-32.836z" fill="#b3b3b3" stroke-width=".28799"/>
  <path d="m346.76 370.95c-1.0682 0-1.9341 1.0253-1.9341 2.2914 0 1.2645 0.86574 2.2905 1.9341 2.2905h3.8669c1.0682 0 1.9338-1.0253 1.9338-2.2905v-37.418c0-1.2654-0.86543-2.2911-1.9338-2.2911h-3.8669c-1.0682 0-1.9341 1.0256-1.9341 2.2911 0 1.2654 0.86574 2.2908 1.9341 2.2908h1.9333v32.836z" fill="#b3b3b3" stroke-width=".28799"/>
  <image x="257.95" y="333.53" width="42" height="42" preserveAspectRatio="none" xlink:href="..\village.svg"/>
  <image x="300.28" y="333.53" width="42" height="42" preserveAspectRatio="none" xlink:href="..\mountain.svg"/>
 </g>
</svg>
