<?xml version="1.0" encoding="UTF-8"?>
<!-- Created with Inkscape (http://www.inkscape.org/) -->
<svg width="42mm" height="42mm" version="1.1" viewBox="0 0 42 42" xmlns="http://www.w3.org/2000/svg" xmlns:cc="http://creativecommons.org/ns#" xmlns:dc="http://purl.org/dc/elements/1.1/" xmlns:rdf="http://www.w3.org/1999/02/22-rdf-syntax-ns#" xmlns:xlink="http://www.w3.org/1999/xlink">
 <defs>
  <linearGradient id="a" x1="203.79" x2="350.13" y1="535.99" y2="709.34" gradientTransform="matrix(.33263 .12162 -.12162 .33263 239.13 10.72)" gradientUnits="userSpaceOnUse">
   <stop stop-color="#acc130" offset="0"/>
   <stop stop-color="#97a03b" offset="1"/>
  </linearGradient>
  <linearGradient id="c" x1="293.13" x2="159.17" y1="622.03" y2="502.71" gradientTransform="matrix(.33263 .12162 -.12162 .33263 239.13 10.72)" gradientUnits="userSpaceOnUse" xlink:href="#b"/>
  <linearGradient id="b">
   <stop stop-color="#97a03b" stop-opacity="0" offset="0"/>
   <stop stop-color="#575c55" offset="1"/>
  </linearGradient>
  <linearGradient id="d" x1="173.72" x2="208.61" y1="542.64" y2="587.67" gradientTransform="matrix(.33263 .12162 -.12162 .33263 239.13 10.72)" gradientUnits="userSpaceOnUse">
   <stop stop-color="#97a03b" offset="0"/>
   <stop stop-color="#6c7d47" offset="1"/>
  </linearGradient>
  <linearGradient id="e" x1="295.72" x2="231.11" y1="377.37" y2="298.02" gradientTransform="matrix(.35278 0 0 .35278 184.17 93.376)" gradientUnits="userSpaceOnUse" xlink:href="#b"/>
  <linearGradient id="f" x1="854.56" x2="1000.9" y1="-279.48" y2="-106.12" gradientTransform="matrix(-.063537 -.34842 .34842 -.063537 456.55 485.82)" gradientUnits="userSpaceOnUse">
   <stop stop-color="#ff4b3e" offset="0"/>
   <stop stop-color="#972e07" offset="1"/>
  </linearGradient>
  <linearGradient id="h" x1="943.89" x2="809.93" y1="-193.43" y2="-312.76" gradientTransform="matrix(-.063537 -.34842 .34842 -.063537 456.55 485.82)" gradientUnits="userSpaceOnUse" xlink:href="#g"/>
  <linearGradient id="g">
   <stop stop-color="#972e07" stop-opacity="0" offset="0"/>
   <stop stop-color="#582707" offset="1"/>
  </linearGradient>
  <linearGradient id="i" x1="824.48" x2="859.38" y1="-272.83" y2="-227.8" gradientTransform="matrix(-.063537 -.34842 .34842 -.063537 456.55 485.82)" gradientUnits="userSpaceOnUse">
   <stop stop-color="#972e07" offset="0"/>
   <stop stop-color="#582707" offset="1"/>
  </linearGradient>
  <linearGradient id="j" x1="365.48" x2="251" y1="303.29" y2="255.68" gradientTransform="matrix(.35278 0 0 .35278 184.17 93.376)" gradientUnits="userSpaceOnUse" xlink:href="#g"/>
  <linearGradient id="k" x1="351" x2="497.34" y1="-123.95" y2="49.405" gradientTransform="matrix(.31754 -.15686 .15686 .31754 164.49 244.68)" gradientUnits="userSpaceOnUse">
   <stop stop-color="#ffe548" offset="0"/>
   <stop stop-color="#ffb211" offset="1"/>
  </linearGradient>
  <linearGradient id="l" x1="440.33" x2="306.38" y1="-37.903" y2="-157.22" gradientTransform="matrix(.31754 -.15686 .15686 .31754 164.49 244.68)" gradientUnits="userSpaceOnUse">
   <stop stop-color="#ffb211" stop-opacity="0" offset="0"/>
   <stop stop-color="#ff951d" stop-opacity=".21569" offset=".214"/>
   <stop stop-color="#ff6d2f" stop-opacity=".56078" offset=".5597"/>
   <stop stop-color="#ff543a" stop-opacity=".83529" offset=".8338"/>
   <stop stop-color="#ff4b3e" offset="1"/>
  </linearGradient>
  <linearGradient id="m" x1="185.27" x2="266.88" y1="179.96" y2="225.87" gradientTransform="matrix(.35278 0 0 .35278 184.17 93.376)" gradientUnits="userSpaceOnUse">
   <stop stop-color="#ffb211" offset="0"/>
   <stop stop-color="#ff4b3e" offset="1"/>
  </linearGradient>
 </defs>
 <metadata>
  <rdf:RDF>
   <cc:Work rdf:about="">
    <dc:format>image/svg+xml</dc:format>
    <dc:type rdf:resource="http://purl.org/dc/dcmitype/StillImage"/>
    <dc:title/>
   </cc:Work>
  </rdf:RDF>
 </metadata>
 <g transform="translate(-33.429 -113.47)">
  <g transform="matrix(.23253 0 0 .24349 -9.3962 90.734)" stroke-width=".35278">
   <path d="m184.4 249.27s-3.0744-102.53 117.53-53.478c5.034 2.0464 7.5213 7.7198 5.6816 12.832-8.8429 24.579-40.425 86.833-123.21 40.645z" fill="url(#a)"/>
   <path d="m307.61 208.62c1.0198-2.8332 0.70555-5.8388-0.63114-8.3041-60.663 16-122.58 48.949-122.58 48.949 82.784 46.188 114.37-16.067 123.21-40.645z" fill="url(#c)"/>
   <path d="m272.89 223.6c-1.0225-0.2384-2.0298-0.55122-3.0303-0.84749-0.99908-0.29353-1.9954-0.58429-2.971-0.93018-0.98254-0.32108-1.9237-0.79099-2.858-1.2333-0.93431-0.44924-1.8989-0.73174-2.9173-0.87092-1.0156-0.12265-2.0409-0.20257-3.1295-0.18052 1.2843-0.6091 2.5673-1.2168 3.853-1.8273l6.3142-2.8994c2.1029-0.97978 4.2457-1.8204 6.3638-2.7685 4.2623-1.8162 8.5631-3.4575 12.994-4.8107l-0.18879-1.0597-3.4975 0.49472-1.7625 0.2508c-0.58291 0.0978-1.1507 0.23427-1.7294 0.34865-2.2862 0.51814-4.6288 0.94533-6.8833 1.5765-4.5668 1.141-9.0523 2.5066-13.554 3.8489-0.8599 0.28112-1.7198 0.56362-2.5811 0.84336 0.40927-0.63252 0.76894-1.2912 1.0253-2.0161 0.35002-0.97289 0.68626-1.9692 1.1548-2.8898 0.44924-0.93431 0.95085-1.8411 1.4524-2.7547 0.49885-0.91502 0.99219-1.848 1.5503-2.7382 1.0404-1.8466 2.249-3.5884 3.4437-5.4171l-0.41065-0.43408c-1.8617 1.1576-3.6518 2.4694-5.3234 3.9288-0.84611 0.72209-1.6371 1.4993-2.4433 2.2765-0.76068 0.81029-1.5269 1.6261-2.2476 2.4805-0.72761 0.85025-1.5172 1.6702-2.2696 2.5287-0.73036 0.86954-1.305 1.8466-1.6633 2.9283-0.0675 0.21222-0.1323 0.42719-0.19293 0.64492-0.66284 2.362-2.4763 4.2278-4.7914 5.0381l-0.0427 0.0152c-4.028 1.4111-8.0147 2.9077-12.015 4.3849 0.55397-0.90262 0.9977-1.8025 1.4001-2.7161 0.39964-0.94671 0.64768-1.921 0.73863-2.9518 0.0951-1.0294 0.17088-2.0795 0.3955-3.0882 0.20119-1.017 0.45889-2.0202 0.7152-3.0303 0.25494-1.0115 0.50023-2.0368 0.8158-3.0386 0.5457-2.0491 1.2802-4.039 1.9789-6.1075l-0.50574-0.31833c-1.5131 1.5875-2.9187 3.3059-4.1713 5.1373-0.63803 0.91088-1.2099 1.8617-1.7956 2.8153-0.5333 0.97427-1.0721 1.9568-1.5544 2.9642-0.49334 1.006-1.0514 1.9968-1.5654 3.0165-0.4892 1.0253-0.80064 2.1139-0.87643 3.2508-0.0289 0.50298-0.0386 1.0101-0.0207 1.5227 0.0854 2.4942-1.5406 4.7308-3.893 5.5659-2.0188 0.71521-4.0418 1.429-6.0551 2.1594-2.5535 0.92053-5.0505 1.9692-7.502 3.113 0.45889-0.78686 0.84474-1.5737 1.1975-2.3716 0.39825-0.94671 0.6463-1.921 0.73725-2.9518 0.0951-1.0308 0.17225-2.0795 0.39549-3.0896 0.2012-1.0156 0.45889-2.0188 0.7152-3.0289 0.25494-1.0115 0.49886-2.0381 0.8158-3.04 0.54571-2.0478 1.2816-4.0376 1.9789-6.1061l-0.50574-0.31833c-1.5131 1.5875-2.9173 3.3059-4.1713 5.1373-0.63804 0.91088-1.2099 1.8617-1.7956 2.8153-0.5333 0.97427-1.0707 1.9568-1.5544 2.9642-0.49333 1.0046-1.0501 1.9968-1.5641 3.0152-0.49058 1.0266-0.80202 2.1153-0.87781 3.2522-0.0634 1.13-0.0331 2.2875 0.19293 3.4534 0.25769 1.3353-0.32109 2.6858-1.5007 3.3652-3.051 1.7598-8.5411 4.9871-11.341 6.9026-3.882 2.6968-7.684 5.5548-11.197 8.982l0.47266 0.96739c4.8507-0.6463 9.4534-1.779 13.975-3.0716 4.5172-1.3036 8.9352-2.8002 13.275-4.4593 0.0772-0.0289 0.15434-0.0579 0.23013-0.0868 1.4001-0.53468 2.9352-3e-3 3.7951 1.2237 0.63528 0.90261 1.3808 1.684 2.1677 2.3923 0.85576 0.75104 1.8438 1.3036 2.9146 1.6853 1.0831 0.36105 2.1773 0.66973 3.2356 1.0349 1.0528 0.37483 2.1277 0.69178 3.1929 1.006 1.0873 0.26321 2.1635 0.5333 3.2577 0.73036 2.1814 0.41479 4.389 0.64079 6.5801 0.70004l0.13504-0.58291c-1.954-0.97427-3.8792-1.8659-5.7092-2.9338-0.93155-0.48782-1.8286-1.0418-2.7216-1.5792-0.89435-0.53468-1.7859-1.0652-2.6445-1.644-0.87092-0.55673-1.6647-1.2471-2.4584-1.91-0.79099-0.66697-1.6536-1.1837-2.6045-1.5737-1.0377-0.40515-2.1084-0.75655-3.2797-1.0142 2.2118-1.0129 4.3918-2.1015 6.5374-3.2604 1.706-0.94257 4.0197-2.1856 6.0579-3.2715 2.1649-1.1562 4.8631-0.84611 6.6173 0.87092 0.85714 0.83923 1.8314 1.5475 2.65 2.282 0.85439 0.75241 1.8438 1.305 2.9146 1.6867 1.0831 0.35967 2.1773 0.66973 3.2356 1.0349 1.0528 0.37344 2.1263 0.69039 3.1929 1.006 1.0873 0.26182 2.1635 0.5333 3.2577 0.72898 2.1801 0.41479 4.3891 0.64216 6.5801 0.70142l0.13505-0.58291c-1.9541-0.97427-3.8792-1.8659-5.7092-2.9338-0.93155-0.48783-1.8286-1.0418-2.7216-1.5792-0.89435-0.53606-1.7846-1.0652-2.6445-1.644-0.87092-0.5581-1.6647-1.2485-2.4584-1.9113-0.79099-0.66696-1.655-1.1824-2.6059-1.5723-1.8287-0.7152-3.7455-1.2733-6.197-1.396 4.1534-2.0395 8.2972-4.1203 12.48-6.0937l0.16123-0.0813c2.5163-1.2568 5.5659-1.1217 7.8383 0.53744 0.64217 0.46853 1.3188 0.86816 2.005 1.2251 1.0156 0.514 2.1112 0.80201 3.2439 0.90261 1.1383 0.0785 2.2765 0.10335 3.3914 0.19292 1.1134 0.0978 2.2324 0.13643 3.3431 0.17363 1.119-0.0179 2.2283-0.0248 3.3376-0.10886 2.2145-0.14332 4.4083-0.4768 6.5457-0.96738l-0.0165-0.59807c-2.136-0.45475-4.2223-0.83647-6.2618-1.4125z" fill="url(#d)"/>
   <path d="m300.65 195.84c-36.324-15.077-61.241-15.889-78.336-9.7593 5.8002 15.67 16.536 26.899 19.323 29.639l35.881 36.62c16.058-13.078 24.737-32.312 28.721-43.615 1.8107-5.1332-0.63803-10.83-5.5893-12.885z" fill="url(#e)"/>
   <path d="m364.49 237.3s-86.86 54.561-105.62-74.275c-0.78273-5.3771 2.8498-10.395 8.191-11.398 25.673-4.8162 95.348-9.1006 97.43 85.673z" fill="url(#f)"/>
   <path d="m267.06 151.62c-2.9614 0.55535-5.3936 2.3482-6.842 4.7487 44.511 44.212 104.27 80.923 104.27 80.923-2.0822-94.773-71.757-90.489-97.43-85.671z" fill="url(#h)"/>
   <path d="m297.56 173.99c0.31282 1.0032 0.5526 2.0298 0.8034 3.0413 0.25218 1.0115 0.50574 2.0161 0.7028 3.0331 0.21911 1.0115 0.29077 2.0602 0.38172 3.0909 0.0868 1.0308 0.33073 2.0064 0.72622 2.9559 0.4079 0.93707 0.8599 1.8617 1.429 2.7892-1.1741-0.79926-2.3496-1.5985-3.5264-2.3978l-5.6968-3.9756c-1.91-1.3188-3.7193-2.7395-5.61-4.0873-3.7248-2.7561-7.316-5.6348-10.727-8.7698l-0.81855 0.69866 2.198 2.7671 1.1093 1.3918c0.37896 0.45337 0.7841 0.87505 1.1755 1.3146 1.604 1.7102 3.1585 3.5154 4.8438 5.1387 3.2963 3.361 6.7455 6.5374 10.182 9.74 0.67799 0.59945 1.356 1.1989 2.034 1.7997-0.75378-0.0331-1.5021-0.01-2.2572 0.13643-1.0156 0.19016-2.0464 0.40514-3.0785 0.46715-1.0322 0.0854-2.0684 0.113-3.1102 0.14194-1.0418 0.0331-2.0946 0.0786-3.1461 0.0496-2.1194 0.0372-4.2333-0.12402-6.4148-0.22738l-0.16674 0.57327c1.9403 1.0197 3.9784 1.8989 6.084 2.6017 1.0501 0.3638 2.1208 0.65319 3.1998 0.95498 1.0831 0.24529 2.1745 0.49334 3.277 0.68213 1.101 0.19706 2.2076 0.46164 3.3293 0.67662 1.1204 0.19017 2.2531 0.19017 3.3666-0.0482 0.21773-0.0482 0.43684-0.10197 0.65457-0.15985 2.3716-0.62425 4.8989-5e-3 6.7703 1.5806l0.0345 0.0289c3.2563 2.7602 6.565 5.4405 9.864 8.1428-1.0583-0.0207-2.0588 0.0524-3.051 0.16674-1.0184 0.13505-1.9844 0.41479-2.9201 0.85852-0.93569 0.43959-1.8796 0.90537-2.8622 1.2223-0.97841 0.34175-1.9747 0.62838-2.9766 0.91777-1.0004 0.29215-2.0092 0.60083-3.0331 0.83509-2.0422 0.56638-4.13 0.93983-6.2673 1.3849l-0.0193 0.59807c2.136 0.50023 4.3284 0.84198 6.5429 0.99494 1.1079 0.0896 2.2173 0.1006 3.3362 0.12403 1.1107-0.0331 2.2297-0.0675 3.3445-0.16123 1.1162-0.0841 2.2531-0.10473 3.3914-0.17777 1.1328-0.0965 2.2297-0.37896 3.248-0.88884 0.44786-0.23013 0.89159-0.47955 1.3243-0.75378 2.107-1.3353 4.859-1.0666 6.7703 0.54019 1.6399 1.378 3.2784 2.7616 4.9279 4.1272 2.0877 1.7363 4.2554 3.3583 6.4837 4.8948-0.91226 1e-3 -1.7859 0.0675-2.6513 0.16813-1.0198 0.13504-1.9844 0.41479-2.9201 0.85851-0.93707 0.4396-1.8796 0.90538-2.8636 1.2223-0.97841 0.34176-1.9747 0.62701-2.9752 0.9164-1.0018 0.29352-2.0092 0.6022-3.0344 0.83509-2.0422 0.56775-4.13 0.9412-6.2673 1.3849l-0.0179 0.59807c2.1346 0.50161 4.327 0.84336 6.5416 0.99632 1.1093 0.0896 2.2173 0.1006 3.3362 0.12402 1.1107-0.0344 2.2297-0.0675 3.3445-0.16123 1.1162-0.0841 2.2531-0.10473 3.3927-0.17776 1.1314-0.0965 2.2283-0.37896 3.248-0.88884 1.006-0.51814 1.9885-1.13 2.8801-1.9155 1.0211-0.89848 2.4791-1.0831 3.6614-0.41066 3.062 1.7405 8.6251 4.8424 11.695 6.2866 4.2912 1.983 8.6803 3.813 13.414 5.1084l0.59531-0.89709c-3.0124-3.8571-6.3197-7.2526-9.7234-10.497-3.412-3.2356-6.9384-6.288-10.567-9.1901-0.0634-0.051-0.12816-0.10336-0.19155-0.15435-1.17-0.93568-1.4883-2.5287-0.86679-3.8916 0.45889-1.006 0.75517-2.0436 0.96601-3.0799 0.21497-1.119 0.19155-2.2503-0.022-3.3679-0.23702-1.1162-0.52365-2.2173-0.74552-3.3142-0.21083-1.0969-0.48093-2.1842-0.74827-3.2618-0.32521-1.0721-0.63527-2.136-1.0211-3.1791-0.74689-2.0905-1.6674-4.1093-2.7271-6.0303l-0.57051 0.17914c0.14883 2.1787 0.35415 4.2898 0.35966 6.4093 0.0524 1.0487 0.0276 2.1029 0.0165 3.1461-8e-3 1.0418-0.0152 2.0781-0.0786 3.113-0.04 1.0322-0.23288 2.0671-0.40376 3.0868-0.17501 1.0198-0.1819 2.0257-0.0372 3.0427 0.17501 1.101 0.41479 2.2021 0.78549 3.3417-1.994-1.3946-4.0349-2.723-6.1212-3.9867-1.6771-0.99495-3.9205-2.3606-5.8884-3.5664-2.0932-1.283-3.1929-3.7662-2.599-6.1474 0.28939-1.1658 0.40652-2.3633 0.62563-3.441 0.21497-1.119 0.19155-2.2517-0.0207-3.3679-0.2384-1.1162-0.52503-2.2173-0.74689-3.3142-0.21085-1.0983-0.48094-2.1842-0.74828-3.2618-0.32522-1.0721-0.63528-2.136-1.0211-3.1805-0.74552-2.0891-1.6674-4.1079-2.7271-6.0289l-0.57051 0.17915c0.15021 2.1787 0.35416 4.2898 0.35968 6.4093 0.0524 1.0501 0.0275 2.1043 0.0165 3.1461-8e-3 1.0418-0.0152 2.0795-0.0786 3.113-0.04 1.0322-0.23288 2.0671-0.40376 3.0868-0.17363 1.0211-0.1819 2.0257-0.0372 3.0441 0.30868 1.9375 0.79927 3.8737 1.9348 6.0496-3.8613-2.5494-7.7542-5.0684-11.574-7.6757l-0.15021-0.0978c-2.3592-1.5338-3.7855-4.232-3.5057-7.0321 0.0786-0.791 0.0813-1.5765 0.0413-2.3496-0.0717-1.1369-0.37758-2.2269-0.86403-3.2536-0.50987-1.0225-1.0625-2.0161-1.5517-3.022-0.47818-1.0101-1.0115-1.9954-1.542-2.971-0.58154-0.95636-1.1493-1.91-1.7832-2.8236-1.2457-1.8369-2.6431-3.5608-4.1493-5.1539l-0.50849 0.31557c0.69177 2.0726 1.418 4.0638 1.9554 6.1157z" fill="url(#i)"/>
   <path d="m364.49 237.3c-2.0822-94.773-71.757-90.489-97.43-85.671-5.3413 1.0018-8.9738 6.0193-8.191 11.396 18.761 128.84 105.62 74.275 105.62 74.275z" fill="url(#j)"/>
   <path d="m242.64 216.24s-76.336-68.515 42.379-121.97c4.954-2.231 10.778-0.11713 13.208 4.7418 11.69 23.358 34.962 89.173-55.587 117.23z" fill="url(#k)"/>
   <path d="m298.22 99.005c-1.3477-2.6941-3.74-4.5393-6.4465-5.2724-30.273 54.951-49.141 122.5-49.141 122.5 90.55-28.054 67.277-93.869 55.587-117.23z" fill="url(#l)"/>
   <path d="m285.11 134.47c-0.87781 0.57602-1.7997 1.0886-2.7037 1.6082-0.90262 0.5209-1.7997 1.0404-2.723 1.509-0.91088 0.48921-1.9003 0.8475-2.8663 1.2182-0.96875 0.36518-1.8383 0.86816-2.6417 1.509-0.78962 0.65182-1.5544 1.3394-2.2903 2.1415 0.4451-1.3491 0.89021-2.6982 1.3367-4.05l2.2558-6.5705c0.74277-2.1994 1.6123-4.3284 2.3881-6.5167 1.6261-4.3381 3.4051-8.5838 5.4832-12.725l-0.89711-0.59394-2.0574 2.8732-1.0335 1.4483c-0.33072 0.49058-0.62563 0.99494-0.93982 1.4924-1.203 2.0119-2.5108 4.0032-3.6091 6.0703-2.3248 4.0928-4.4318 8.2806-6.5664 12.467-0.38861 0.8158-0.77997 1.6344-1.17 2.4502-0.17501-0.73312-0.40514-1.4469-0.75103-2.1332-0.46302-0.92466-0.95222-1.8548-1.2954-2.8305-0.36656-0.96876-0.678-1.9582-0.99219-2.9518-0.31833-0.99219-0.65319-1.9926-0.91226-3.011-0.61874-2.0271-1.0459-4.1052-1.5448-6.2301l-0.59807-3e-3c-0.44648 2.147-0.73174 4.3477-0.82958 6.565-0.0606 1.1107-0.0441 2.2186-0.0372 3.339 0.0606 1.1093 0.12402 2.2269 0.24529 3.3376 0.11162 1.1134 0.16261 2.2503 0.26321 3.3872 0.1254 1.13 0.43683 2.2186 0.97151 3.2246 0.10749 0.19568 0.21911 0.39136 0.33349 0.58566 1.2526 2.1084 1.3532 4.7088 0.34175 6.9426l-0.0179 0.0413c-1.7584 3.8902-3.4258 7.808-5.1167 11.723-0.27147-1.0225-0.61598-1.965-0.99907-2.8869-0.41066-0.94258-0.94534-1.7942-1.6288-2.5714-0.67938-0.77997-1.3863-1.5586-1.9623-2.4171-0.59669-0.84612-1.1465-1.7253-1.6991-2.6086-0.55673-0.88195-1.1314-1.7666-1.6371-2.6872-1.1066-1.808-2.0395-3.7124-3.0551-5.6458l-0.58016 0.14745c0.10611 2.1897 0.38034 4.3918 0.84061 6.5636 0.21911 1.09 0.51401 2.1594 0.79926 3.2425 0.33762 1.0583 0.67799 2.1249 1.0735 3.1695 0.38723 1.0501 0.71934 2.1387 1.1038 3.2136 0.40377 1.0625 0.97703 2.0395 1.7474 2.8787 0.34451 0.36656 0.70556 0.72485 1.0886 1.0652 1.8631 1.6592 2.3606 4.3794 1.3422 6.6573-0.87505 1.9568-1.7542 3.9109-2.6141 5.8732-1.0942 2.4846-2.0588 5.0147-2.9228 7.5792-0.25218-0.87644-0.55672-1.6977-0.89021-2.5025-0.41065-0.94258-0.94533-1.7956-1.6288-2.5714-0.67937-0.77997-1.3863-1.5586-1.9623-2.4171-0.5967-0.84611-1.1465-1.7267-1.6991-2.6086-0.55672-0.88194-1.13-1.7666-1.6371-2.6872-1.1066-1.808-2.0395-3.7124-3.0551-5.6458l-0.58015 0.14745c0.10611 2.1897 0.38034 4.3918 0.84198 6.5622 0.21911 1.0914 0.51263 2.1608 0.79789 3.2425 0.33762 1.0583 0.67799 2.1249 1.0735 3.1709 0.38722 1.0501 0.72071 2.1373 1.1038 3.2122 0.40376 1.0625 0.9784 2.0395 1.7474 2.8787 0.77583 0.82545 1.6344 1.6027 2.6334 2.2434 1.1452 0.73449 1.7225 2.085 1.4015 3.4079-0.83095 3.423-2.2834 9.6228-2.8291 12.973-0.72623 4.6716-1.2802 9.3941-1.2237 14.301l1.0266 0.32522c2.8801-3.9564 5.2352-8.0698 7.4194-12.234 2.1718-4.1699 4.1382-8.3991 5.9311-12.686 0.0317-0.0758 0.0634-0.1502 0.0951-0.22599 0.57878-1.3822 2.023-2.1263 3.5044-1.9031 1.0914 0.16398 2.1718 0.1626 3.226 0.0813 1.1341-0.1006 2.2173-0.43409 3.2315-0.94672 1.0087-0.53467 1.9871-1.1134 2.9821-1.6275 0.9977-0.50436 1.9678-1.0625 2.9311-1.6178 0.9412-0.60633 1.8783-1.1975 2.7754-1.8548 1.8052-1.2926 3.4933-2.734 5.0478-4.2788l-0.32935-0.50023c-2.0533 0.74276-4.0266 1.52-6.062 2.1084-0.99495 0.33762-2.0161 0.60496-3.0207 0.88056-1.0046 0.27837-2.0037 0.55673-3.0152 0.77997-1.0046 0.24529-2.0519 0.34314-3.0785 0.46027-1.0294 0.113-1.9982 0.38172-2.9366 0.80064-1.0101 0.47129-2.0023 1.0046-2.9972 1.6743 0.79237-2.3013 1.509-4.6274 2.1511-6.9811 0.49472-1.8865 1.192-4.4194 1.8107-6.6421 0.65733-2.3647 2.7437-4.1052 5.1966-4.1892 1.1989-0.0413 2.384-0.25907 3.4796-0.34313 1.1355-0.1006 2.2173-0.43546 3.2315-0.94671 1.0087-0.53606 1.9871-1.1148 2.9821-1.6288 0.99632-0.50436 1.9678-1.0625 2.9311-1.6164 0.9412-0.60634 1.8783-1.1989 2.7754-1.8562 1.8052-1.2912 3.4933-2.7326 5.0478-4.2788l-0.32935-0.49885c-2.0533 0.74139-4.0266 1.5186-6.0634 2.1084-0.99495 0.33762-2.0147 0.60358-3.0207 0.88057-1.0046 0.27836-2.0023 0.55673-3.0138 0.77997-1.0046 0.24529-2.0519 0.34313-3.0785 0.46026-1.0294 0.113-1.9982 0.38172-2.9366 0.80064-1.779 0.83096-3.5057 1.8342-5.2862 3.5236 1.3904-4.4139 2.7423-8.8484 4.1989-13.237l0.0537-0.17225c0.82544-2.6899 3.0276-4.8038 5.796-5.3041 0.78272-0.14194 1.5393-0.35416 2.271-0.60496 1.0735-0.38172 2.0367-0.97565 2.8911-1.7253 0.84198-0.77033 1.6454-1.5765 2.4791-2.322 0.83922-0.73863 1.6399-1.5227 2.4336-2.2999 0.7593-0.82269 1.5186-1.6302 2.2228-2.4915 1.4249-1.7019 2.6968-3.5195 3.8158-5.406l-0.44373-0.40101c-1.8025 1.2333-3.5182 2.4791-5.3427 3.5595z" fill="url(#m)"/>
  </g>
 </g>
</svg>
