<?xml version="1.0" encoding="UTF-8"?>
<!-- Created with Inkscape (http://www.inkscape.org/) -->
<svg width="42.405mm" height="42.472mm" version="1.1" viewBox="0 0 42.405 42.472" xmlns="http://www.w3.org/2000/svg" xmlns:cc="http://creativecommons.org/ns#" xmlns:dc="http://purl.org/dc/elements/1.1/" xmlns:rdf="http://www.w3.org/1999/02/22-rdf-syntax-ns#">
 <metadata>
  <rdf:RDF>
   <cc:Work rdf:about="">
    <dc:format>image/svg+xml</dc:format>
    <dc:type rdf:resource="http://purl.org/dc/dcmitype/StillImage"/>
    <dc:title/>
   </cc:Work>
  </rdf:RDF>
 </metadata>
 <g transform="translate(-71.78 -66.365)">
  <g transform="matrix(.40565 0 0 .47234 71.982 63.149)" fill="#b3b3b3">
   <g fill="#b3b3b3">
    <path d="m0.65 91.928c1.221 2.701 3.881 4.3 6.665 4.3 1.006 0 2.029-0.209 3.006-0.65l88.917-40.195c2.688-1.216 4.381-3.925 4.295-6.873-0.085-2.948-1.934-5.554-4.687-6.609l-88.917-34.107c-3.759-1.442-7.996 0.436-9.44 4.207-1.447 3.769 0.438 7.995 4.207 9.44l72.569 27.834-72.966 32.98c-3.679 1.665-5.311 5.994-3.649 9.673z" fill="#b3b3b3" stroke="#b3b3b3"/>
   </g>
  </g>
 </g>
</svg>
