<?xml version="1.0" encoding="UTF-8"?>
<!-- Generator: Adobe Illustrator 19.0.0, SVG Export Plug-In . SVG Version: 6.00 Build 0)  -->
<svg enable-background="new 0 0 513.067 513.067" version="1.1" viewBox="0 0 513.07 513.07" xml:space="preserve" xmlns="http://www.w3.org/2000/svg" xmlns:cc="http://creativecommons.org/ns#" xmlns:dc="http://purl.org/dc/elements/1.1/" xmlns:rdf="http://www.w3.org/1999/02/22-rdf-syntax-ns#"><metadata><rdf:RDF><cc:Work rdf:about=""><dc:format>image/svg+xml</dc:format><dc:type rdf:resource="http://purl.org/dc/dcmitype/StillImage"/><dc:title/></cc:Work></rdf:RDF></metadata>
<path d="m440 35.2h-366.93c-9.6 0-18.133-7.467-18.133-18.133-1e-3 -9.6 8.533-17.067 18.133-17.067h366.93c9.6 0 18.133 7.467 18.133 18.133 0 9.6-8.533 17.067-18.133 17.067z" fill="#415A6B"/>
<rect x="101.87" y="35.2" width="310.4" height="35.2" fill="#344A5E"/>
<path d="m73.067 476.8h366.93c9.6 0 18.133 7.467 18.133 18.133 0 9.6-7.467 18.133-18.133 18.133h-366.93c-9.6 0-18.133-7.467-18.133-18.133-1e-3 -10.666 8.533-18.133 18.133-18.133z" fill="#415A6B"/>
<rect x="101.87" y="440.53" width="310.4" height="35.2" fill="#344A5E"/>
<path d="m286.4 256c44.8 27.733 124.8 85.333 124.8 152.53v32h-309.33v-32c0-67.2 80-124.8 124.8-152.53-45.867-27.733-124.8-85.333-124.8-152.53v-32h310.4v32c0 67.2-80 124.8-125.87 152.53z" fill="#E8EAE9"/>
<path d="m386.67 440.53h-259.2c0-46.933 49.067-89.6 86.4-115.2 19.2-13.867 30.933-35.2 30.933-58.667v-36.266l-1.067-1.067c-33.067-20.267-58.667-40.533-77.867-61.867h182.4c-19.2 20.267-44.8 41.6-77.867 61.867l-2.133 1.067v36.267c0 23.467 11.733 45.867 30.933 58.667 38.401 25.599 87.468 68.266 87.468 115.2z" fill="#FFD15C"/>















</svg>
