<?xml version="1.0" encoding="UTF-8"?>
<!-- Created with Inkscape (http://www.inkscape.org/) -->
<svg width="42mm" height="42mm" version="1.1" viewBox="0 0 42 42" xmlns="http://www.w3.org/2000/svg" xmlns:cc="http://creativecommons.org/ns#" xmlns:dc="http://purl.org/dc/elements/1.1/" xmlns:rdf="http://www.w3.org/1999/02/22-rdf-syntax-ns#">
 <metadata>
  <rdf:RDF>
   <cc:Work rdf:about="">
    <dc:format>image/svg+xml</dc:format>
    <dc:type rdf:resource="http://purl.org/dc/dcmitype/StillImage"/>
    <dc:title/>
   </cc:Work>
  </rdf:RDF>
 </metadata>
 <g transform="translate(-41.744 -93.06)">
  <g transform="matrix(.31004 0 0 .32518 40.723 7.8904)">
   <g stroke-width=".26458">
    <path d="m137.25 315.21c-1.4113-0.91228-3.3589-2.0892-5.7327-3.3203-0.8165-0.42333-1.1425-1.4266-0.73078-2.249 1.197-2.3913 2.0807-4.4881 2.6863-6.0558 0.64743-1.6761-0.16695-3.565-1.8314-4.2423-6.2796-2.5561-21.913-7.4869-37.327-1.097 1.3142-16.634-8.2066-29.978-12.578-35.161-1.1586-1.3734-3.2065-1.5645-4.6006-0.43074-1.3036 1.0602-3.0247 2.5487-4.9292 4.426-0.65484 0.64559-1.7097 0.64559-2.3646 0-1.9042-1.8772-3.6253-3.3658-4.9292-4.4262-1.3941-1.1337-3.442-0.94271-4.6006 0.43074-4.3714 5.1824-13.892 18.527-12.578 35.161-15.414-6.39-31.047-1.4589-37.327 1.097-1.6645 0.67759-2.4789 2.5662-1.8314 4.2423 0.60563 1.5676 1.4893 3.6645 2.6863 6.0558 0.41169 0.82232 0.08573 1.8256-0.73078 2.249-2.3738 1.2308-4.3214 2.408-5.7327 3.3202-1.5092 0.97552-1.9603 2.9821-1.012 4.5085 3.578 5.7589 13.328 18.936 29.554 22.827-10.841 12.685-10.982 29.078-10.492 35.84 0.12991 1.7923 1.6745 3.1507 3.4687 3.0528 1.678-0.0915 3.9455-0.28416 6.5894-0.68342 0.90937-0.13732 1.7627 0.4826 1.9129 1.3899 0.43709 2.6382 0.95462 4.854 1.3862 6.4781 0.46143 1.7367 2.2304 2.7858 3.9751 2.3556 6.5828-1.6232 22.129-6.8244 30.843-21.055 8.7141 14.23 24.26 19.432 30.843 21.055 1.7447 0.43022 3.5139-0.61912 3.9754-2.3556 0.43154-1.6243 0.94907-3.8402 1.3862-6.4781 0.15028-0.90726 1.0038-1.5272 1.9129-1.3899 2.644 0.39926 4.9115 0.59188 6.5894 0.68342 1.7944 0.0979 3.3388-1.2605 3.4687-3.0528 0.49027-6.7622 0.34899-23.155-10.492-35.84 16.226-3.8904 25.976-17.068 29.554-22.827 0.94853-1.5264 0.49741-3.5332-1.0118-4.5088z" fill="#f27281"/>
    <path d="m60.338 263.06c-0.0069 8e-3 -0.01482 0.0151-0.02143 0.023-4.3714 5.1824-13.892 18.527-12.578 35.161-15.414-6.39-31.047-1.4589-37.327 1.097-1.6645 0.6776-2.4789 2.5662-1.8314 4.2423 0.60563 1.5677 1.4893 3.6645 2.6863 6.0558 0.41169 0.82233 0.08573 1.8256-0.73078 2.249-2.3738 1.2308-4.3214 2.408-5.7327 3.3203-1.5092 0.97552-1.9603 2.9821-1.012 4.5085 3.578 5.7589 13.328 18.936 29.554 22.827-10.841 12.685-10.983 29.077-10.492 35.84 0.12991 1.7923 1.6745 3.1507 3.4687 3.0528 1.678-0.0915 3.9455-0.28416 6.5894-0.68342 0.90937-0.13732 1.7627 0.4826 1.9129 1.3899 0.43709 2.6382 0.95462 4.854 1.3862 6.4781 0.46143 1.7367 2.2304 2.7858 3.9751 2.3556 6.5828-1.6232 22.129-6.8244 30.843-21.055 8.7141 14.23 24.26 19.432 30.843 21.055 1.7447 0.43022 3.5139-0.61912 3.9754-2.3556 0.43154-1.6243 0.94907-3.8402 1.3862-6.4781 0.0593-0.35798 0.22913-0.66993 0.46752-0.90964-49.317-15.638-50.618-97.137-47.362-118.17z" fill="#ea6376"/>
    <path d="m71.028 332.29c-1.0959 0-1.9844-0.8882-1.9844-1.9844v-19.309c0-1.0962 0.88847-1.9844 1.9844-1.9844s1.9844 0.88821 1.9844 1.9844v19.309c0 1.0962-0.88847 1.9846-1.9844 1.9846z" fill="#fff"/>
    <circle cx="71.028" cy="310.99" r="5.297" fill="#f7d88b"/>
    <path d="m71.028 332.29c-0.50774 0-1.0157-0.19367-1.4031-0.58102l-13.654-13.654c-0.77496-0.77523-0.77496-2.0315 0-2.8067 0.77496-0.7747 2.0315-0.7747 2.8062 0l13.654 13.654c0.77496 0.77523 0.77496 2.0315 0 2.8067-0.38735 0.38708-0.89535 0.58102-1.4031 0.58102z" fill="#fff"/>
    <circle cx="57.375" cy="316.65" r="5.297" fill="#f7d88b"/>
    <path d="m71.028 332.29h-19.309c-1.0959 0-1.9844-0.8882-1.9844-1.9844 0-1.0959 0.88847-1.9844 1.9844-1.9844h19.309c1.0959 0 1.9844 0.88847 1.9844 1.9844 0 1.0959-0.88847 1.9844-1.9844 1.9844z" fill="#fff"/>
    <circle cx="51.719" cy="330.3" r="5.297" fill="#f7d88b"/>
    <path d="m57.374 345.94c-0.50774 0-1.0157-0.19368-1.4031-0.58103-0.77496-0.77522-0.77496-2.0315 0-2.8064l13.654-13.654c0.77496-0.7747 2.0315-0.7747 2.8062 0 0.77496 0.77523 0.77496 2.0315 0 2.8067l-13.654 13.654c-0.38735 0.38735-0.89509 0.58103-1.4031 0.58103z" fill="#fff"/>
    <circle cx="57.375" cy="343.95" r="5.297" fill="#f7d88b"/>
    <path d="m71.028 351.6c-1.0959 0-1.9844-0.88821-1.9844-1.9844v-19.309c0-1.0959 0.88847-1.9844 1.9844-1.9844s1.9844 0.88847 1.9844 1.9844v19.309c0 1.0962-0.88847 1.9844-1.9844 1.9844z" fill="#fff"/>
    <circle cx="71.028" cy="349.61" r="5.297" fill="#f7d88b"/>
    <path d="m84.682 345.94c-0.50774 0-1.0157-0.19368-1.4031-0.58103l-13.654-13.654c-0.77496-0.77523-0.77496-2.0315 0-2.8067 0.77496-0.7747 2.0315-0.7747 2.8062 0l13.654 13.654c0.77496 0.77523 0.77496 2.0315 0 2.8064-0.38708 0.38735-0.89482 0.58103-1.4028 0.58103z" fill="#fff"/>
    <circle cx="84.68" cy="343.95" r="5.297" fill="#f7d88b"/>
    <path d="m90.337 332.29h-19.309c-1.0959 0-1.9844-0.8882-1.9844-1.9844 0-1.0959 0.88847-1.9844 1.9844-1.9844h19.309c1.0959 0 1.9844 0.88847 1.9844 1.9844 0 1.0959-0.88821 1.9844-1.9844 1.9844z" fill="#fff"/>
    <circle cx="90.337" cy="330.3" r="5.297" fill="#f7d88b"/>
    <path d="m71.028 332.29c-0.50774 0-1.0157-0.19367-1.4031-0.58102-0.77496-0.77523-0.77496-2.0315 0-2.8067l13.654-13.654c0.77496-0.7747 2.0315-0.7747 2.8062 0 0.77496 0.77523 0.77496 2.0315 0 2.8067l-13.654 13.654c-0.38761 0.38708-0.89561 0.58102-1.4034 0.58102z" fill="#fff"/>
    <circle cx="84.68" cy="316.65" r="5.297" fill="#f7d88b"/>
   </g>
   <g transform="matrix(.26458 0 0 .26458 3.2944 258.76)" opacity=".1">
    <path d="m256 152.96c-4.142 0-7.5-3.357-7.5-7.5v-77.005c0-4.143 3.358-7.5 7.5-7.5s7.5 3.357 7.5 7.5v77.005c0 4.143-3.358 7.5-7.5 7.5z"/>
    <path d="m137.18 239.29c-0.768 0-1.549-0.119-2.319-0.369l-73.237-23.796c-3.939-1.28-6.095-5.511-4.815-9.45 1.28-3.94 5.51-6.094 9.451-4.815l73.236 23.796c3.939 1.28 6.095 5.511 4.815 9.45-1.03 3.169-3.97 5.184-7.131 5.184z"/>
    <path d="m137.3 441.26c-1.528 0-3.071-0.466-4.402-1.434-3.351-2.435-4.094-7.125-1.659-10.476l45.262-62.298c2.434-3.352 7.124-4.097 10.476-1.659 3.351 2.435 4.094 7.125 1.659 10.476l-45.262 62.298c-1.467 2.019-3.754 3.093-6.074 3.093z"/>
    <path d="m374.82 239.29c-3.162 0-6.102-2.015-7.131-5.185-1.28-3.939 0.876-8.17 4.815-9.45l73.236-23.796c3.939-1.281 8.17 0.875 9.451 4.815 1.28 3.939-0.876 8.17-4.815 9.45l-73.236 23.796c-0.77 0.251-1.552 0.37-2.32 0.37z"/>
    <path d="m374.7 441.26c-2.319 0-4.606-1.072-6.074-3.093l-45.262-62.298c-2.435-3.351-1.692-8.041 1.659-10.476 3.352-2.436 8.042-1.692 10.476 1.659l45.262 62.298c2.435 3.351 1.692 8.041-1.659 10.476-1.332 0.968-2.874 1.434-4.402 1.434z"/>
   </g>
  </g>
 </g>
</svg>
