<?xml version="1.0" encoding="UTF-8"?>
<!-- Created with Inkscape (http://www.inkscape.org/) -->
<svg width="38.646mm" height="36.038mm" version="1.1" viewBox="0 0 38.646 36.038" xmlns="http://www.w3.org/2000/svg" xmlns:cc="http://creativecommons.org/ns#" xmlns:dc="http://purl.org/dc/elements/1.1/" xmlns:rdf="http://www.w3.org/1999/02/22-rdf-syntax-ns#">
 <metadata>
  <rdf:RDF>
   <cc:Work rdf:about="">
    <dc:format>image/svg+xml</dc:format>
    <dc:type rdf:resource="http://purl.org/dc/dcmitype/StillImage"/>
    <dc:title/>
   </cc:Work>
  </rdf:RDF>
 </metadata>
 <g transform="translate(-175.71 -40.1)">
  <g transform="translate(-151.85 15.645)">
   <path d="m366.11 38.073c-0.25299-0.76146-0.94707-1.3023-1.7682-1.3743l-11.154-0.98553-4.4107-10.046c-0.32523-0.73621-1.0659-1.2128-1.8888-1.2128-0.82294 0-1.5636 0.47656-1.8888 1.2145l-4.4107 10.044-11.156 0.98553c-0.8197 0.0738-1.512 0.61285-1.7665 1.3743-0.25446 0.76145-0.0195 1.5966 0.60061 2.1231l8.4313 7.1951-2.4862 10.657c-0.18193 0.78355 0.13062 1.5935 0.79875 2.0635 0.35914 0.25247 0.7793 0.38101 1.203 0.38101 0.36533 0 0.72771-0.0958 1.0529-0.28519l9.6217-5.5956 9.6181 5.5956c0.70382 0.412 1.591 0.37442 2.2577-0.0958 0.66843-0.4714 0.98069-1.2816 0.79876-2.0635l-2.4862-10.657 8.4313-7.1937c0.62008-0.52792 0.85684-1.3617 0.60239-2.1246z" fill="#ffc107" stroke-width=".074459"/>
   <text x="341.42517" y="47.564198" fill="#000000" font-family="sans-serif" font-size="14.111px" font-weight="bold" letter-spacing="0px" stroke-width=".26458" word-spacing="0px" style="font-feature-settings:normal;font-variant-caps:normal;font-variant-ligatures:normal;font-variant-numeric:normal;line-height:1.25" xml:space="preserve"><tspan x="341.42517" y="47.564198" font-family="sans-serif" font-size="14.111px" font-weight="bold" stroke-width=".26458" style="font-feature-settings:normal;font-variant-caps:normal;font-variant-ligatures:normal;font-variant-numeric:normal">2</tspan></text>
  </g>
 </g>
</svg>
