<?xml version="1.0" encoding="UTF-8"?>
<!-- Created with Inkscape (http://www.inkscape.org/) -->
<svg width="42mm" height="42mm" version="1.1" viewBox="0 0 42 42" xmlns="http://www.w3.org/2000/svg" xmlns:cc="http://creativecommons.org/ns#" xmlns:dc="http://purl.org/dc/elements/1.1/" xmlns:rdf="http://www.w3.org/1999/02/22-rdf-syntax-ns#">
 <metadata>
  <rdf:RDF>
   <cc:Work rdf:about="">
    <dc:format>image/svg+xml</dc:format>
    <dc:type rdf:resource="http://purl.org/dc/dcmitype/StillImage"/>
    <dc:title/>
   </cc:Work>
  </rdf:RDF>
 </metadata>
 <g transform="translate(-44.768 -117.25)">
  <g transform="matrix(.31203 0 0 .31004 18.249 48.967)" stroke-width=".26458">
   <path d="m218.92 300.04-14.491-12.783 13.978-13.335c0.51355-0.49 0.72496-1.2147 0.55536-1.9021-0.16986-0.68712-0.69559-1.2316-1.3787-1.429l-18.604-5.3689 6.876-18.006c0.25267-0.66146 0.13096-1.4065-0.31856-1.955-0.44979-0.54822-1.1597-0.81624-1.8621-0.703l-19.122 3.0829-1.5552-19.198c-0.0572-0.70538-0.48842-1.3269-1.1311-1.6301-0.64268-0.30321-1.3999-0.24262-1.9854 0.15902l-15.945 10.938-9.6861-16.68c-0.35586-0.61277-1.0134-0.99007-1.7251-0.99007s-1.369 0.3773-1.7248 0.99007l-11.119 19.147-19.233-11.1c-0.61568-0.35533-1.375-0.35692-1.9918-5e-3 -0.61727 0.35216-0.99827 1.0052-1.0001 1.7126l-0.0466 19.26-19.305-1.5912c-0.70776-0.0582-1.3957 0.26379-1.801 0.84508-0.40561 0.58129-0.46858 1.3338-0.16457 1.9735l8.2661 17.419-18.127 6.7948c-0.66569 0.2495-1.147 0.83344-1.2629 1.5317-0.11589 0.69798 0.15214 1.4044 0.70273 1.8529l14.98 12.211-13.444 13.867c-0.49371 0.50933-0.67707 1.242-0.48048 1.9219 0.19685 0.67998 0.74348 1.2038 1.4338 1.3742l18.8 4.6437-6.1635 18.259c-0.22648 0.67072-0.0757 1.4105 0.39529 1.941 0.47122 0.53049 1.1912 0.77073 1.8883 0.63024l18.986-3.8214 2.3074 19.124c0.0844 0.70247 0.54002 1.3065 1.1941 1.5849 0.65458 0.27834 1.4084 0.18838 1.9778-0.23575l15.504-11.548 10.333 15.76c0.36566 0.57652 1.0025 0.92392 1.6846 0.92392 0.0259 0 0.0519-5.3e-4 0.0781-2e-3 0.71093-0.0275 1.3533-0.43021 1.6849-1.0562l9.0242-16.511 16.362 10.312c0.6014 0.37888 1.3592 0.4101 1.9902 0.082 0.63024-0.32809 1.0369-0.96573 1.0663-1.6727l0.80195-19.244 19.228 2.3389c0.70485 0.0857 1.4049-0.20928 1.833-0.77443 0.4281-0.56542 0.52017-1.3147 0.24183-1.9659l-7.5766-17.726 18.379-6.0862c0.67522-0.22357 1.179-0.78819 1.3221-1.4814 0.14287-0.69268-0.0971-1.4089-0.62918-1.8785z" fill="#ffa600"/>
   <ellipse cx="151.85" cy="287.62" rx="41.029" ry="40.997" fill="#ffdb2d"/>
   <path d="m151.85 246.63c-1.0276 0-2.0458 0.0389-3.0541 0.11325 21.233 1.5613 37.974 19.268 37.974 40.884 0 21.615-16.742 39.322-37.974 40.884 1.0083 0.0741 2.0267 0.11324 3.0541 0.11324 22.659 0 41.028-18.355 41.028-40.997 0-22.642-18.369-40.997-41.028-40.997z" fill="#ffca00"/>
  </g>
 </g>
</svg>
