<?xml version="1.0" encoding="UTF-8"?>
<!-- Created with Inkscape (http://www.inkscape.org/) -->
<svg width="42mm" height="42.101mm" version="1.1" viewBox="0 0 42 42.101" xmlns="http://www.w3.org/2000/svg" xmlns:cc="http://creativecommons.org/ns#" xmlns:dc="http://purl.org/dc/elements/1.1/" xmlns:rdf="http://www.w3.org/1999/02/22-rdf-syntax-ns#">
 <metadata>
  <rdf:RDF>
   <cc:Work rdf:about="">
    <dc:format>image/svg+xml</dc:format>
    <dc:type rdf:resource="http://purl.org/dc/dcmitype/StillImage"/>
    <dc:title/>
   </cc:Work>
  </rdf:RDF>
 </metadata>
 <g transform="translate(-42.5 -83.938)">
  <g transform="translate(17.27 -4.2426)" stroke-width="0">
   <path d="m25.23 88.281h42v42h-42z" fill="#000080"/>
   <path d="m40.034 88.18c0.18099 0.16809 0.31765 0.28209 0.36535 0.29042 0.08221 0.0143 0.24622-0.086 0.48576-0.29042zm16.351 0c0.50098 0.69867 0.88054 1.2146 0.94878 1.2712 0.17182 0.14257 0.45949 0.1966 0.63924 0.1204 0.07863-0.0333 0.5746-0.59038 1.2588-1.3916zm-7.2016 0.0982c-0.48886 0-1.5301 0.9097-4.8891 4.2726-2.3474 2.3501-4.3936 4.2731-4.547 4.2731-0.15345 0-1.9237-1.7092-3.9336-3.7982-2.27-2.3593-3.8294-3.7982-4.1171-3.7982-0.28448 0-2.1558 1.6939-4.8504 4.3915-0.56899 0.56962-1.11 1.1081-1.6159 1.6087v12.491c0.31596-0.35939 0.62357-0.70744 0.96066-1.0955 2.123-2.4443 4.1806-4.7904 4.5723-5.2136l0.7121-0.76947 4.1543 4.8514c2.2848 2.6683 4.3297 4.8546 4.5444 4.8576 0.22019 3e-3 2.2816-2.2239 4.7268-5.1072 2.3849-2.8121 4.4108-5.0283 4.502-4.9253 0.09133 0.10299 1.7821 2.5494 3.7569 5.4369 1.9748 2.8875 3.752 5.3845 3.9496 5.5485 0.27531 0.22849 0.43738 0.23323 0.6935 0.0207 0.18384-0.15258 2.2872-2.6778 4.6741-5.612 2.3869-2.9342 4.4122-5.3063 4.5005-5.271 0.01683 7e-3 0.11625 0.11927 0.2527 0.27958v-11.909c-0.01614-4e-3 -0.0328-0.01-0.04393-8e-3 -0.21199 0.038-2.3294 2.2591-4.7057 4.9356-2.3762 2.6765-4.3959 4.893-4.4881 4.9253-0.09219 0.0323-1.9724-2.2915-4.178-5.1635-3.4191-4.452-4.1017-5.2214-4.6312-5.2214zm-0.55966 21.364c-0.14606 0-2.2703 1.9948-4.7206 4.4328l-4.4555 4.4328-3.6013-3.7284c-1.9808-2.0508-3.812-3.8413-4.0695-3.9791-0.4131-0.22109-1.0101 0.2884-5.071 4.33-0.54131 0.53873-1.0105 0.99417-1.4754 1.4449v12.385c0.48411-0.55628 0.88413-1.0113 1.5224-1.7513 2.3084-2.6765 4.262-4.89 4.3413-4.9186 0.0793-0.0286 1.9601 2.0716 4.1796 4.6674 1.0553 1.2343 2.0347 2.3574 2.805 3.2225h3.637c0.71894-0.81824 1.6127-1.8563 2.5787-3.0034 2.089-2.4807 3.9726-4.669 4.1863-4.8628 0.35278-0.31995 0.67903 0.0693 3.5424 4.2297 1.0833 1.574 1.8882 2.7343 2.5259 3.6365h4.8312c0.65612-0.76936 1.3642-1.6113 2.1373-2.5559 2.3778-2.905 4.4545-5.4231 4.6147-5.596 0.12113-0.13082 0.40709 0.0605 1.0981 0.83613v-12.202c-0.32025-0.31097-0.53688-0.49751-0.58188-0.48317-0.23742 0.0756-5.1209 5.3628-8.3349 9.0237l-0.99477 1.1327-3.8349-4.9666c-4.1129-5.3264-4.4521-5.7263-4.8602-5.7263z" fill="#0ff"/>
  </g>
 </g>
</svg>
