<?xml version="1.0" encoding="UTF-8"?>
<!-- Created with Inkscape (http://www.inkscape.org/) -->
<svg width="42mm" height="42mm" version="1.1" viewBox="0 0 42 42" xmlns="http://www.w3.org/2000/svg" xmlns:cc="http://creativecommons.org/ns#" xmlns:dc="http://purl.org/dc/elements/1.1/" xmlns:rdf="http://www.w3.org/1999/02/22-rdf-syntax-ns#">
 <metadata>
  <rdf:RDF>
   <cc:Work rdf:about="">
    <dc:format>image/svg+xml</dc:format>
    <dc:type rdf:resource="http://purl.org/dc/dcmitype/StillImage"/>
    <dc:title/>
   </cc:Work>
  </rdf:RDF>
 </metadata>
 <g transform="translate(-57.619 -97.595)">
  <g transform="matrix(.25415 0 0 .23253 74.03 61.711)" stroke-width=".35278">
   <path d="m93.888 263.79-21.752 5.8291-15.998-9.2356v-31.502l15.998-9.2356 21.752 5.8291c2.8801 0.77446 5.8401-0.93569 6.6146-3.8158 0.77033-2.8815-0.93982-5.8443-3.8199-6.6146l-11.321-3.0344 8.9297-5.1566c2.5811-1.4897 3.4671-4.7914 1.9761-7.3766-1.4897-2.5811-4.7956-3.4671-7.3766-1.9761l-8.9297 5.1552 3.0317-11.319c0.77446-2.8801-0.93569-5.8443-3.8158-6.6146-2.8842-0.77308-5.8429 0.93706-6.6146 3.8172l-5.8277 21.752-15.996 9.2356-27.281-15.751v-18.467l15.925-15.925c2.1098-2.1098 2.1098-5.5301 0-7.6398-2.1098-2.1056-5.5259-2.1056-7.6357 0l-8.2889 8.2889v-10.312c0-2.9807-2.4185-5.4005-5.4005-5.4005-2.9807 0-5.4005 2.4198-5.4005 5.4005v10.312l-8.2875-8.2889c-2.1098-2.1056-5.5259-2.1056-7.6357 0-2.1098 2.1098-2.1098 5.5301 0 7.6398l15.923 15.925v18.467l-27.28 15.751-15.996-9.2356-5.8291-21.752c-0.77032-2.8801-3.729-4.5902-6.6132-3.8172-2.8801 0.77032-4.5902 3.7345-3.8172 6.6146l3.0317 11.319-8.9283-5.1552c-2.5811-1.491-5.887-0.60497-7.3766 1.9761-1.491 2.5852-0.60496 5.887 1.9761 7.3766l8.9283 5.1566-11.319 3.0344c-2.8801 0.77032-4.5902 3.7331-3.8199 6.6146 0.77446 2.8801 3.7331 4.5902 6.6146 3.8158l21.752-5.8291 15.996 9.2356v31.502l-15.996 9.2356-21.752-5.8291c-2.8815-0.77447-5.8443 0.93568-6.6146 3.8158-0.77032 2.8815 0.93982 5.8443 3.8199 6.6146l11.319 3.0344-8.9283 5.1566c-2.5811 1.4897-3.4671 4.7914-1.9761 7.3766 1.4897 2.5811 4.7956 3.4672 7.3766 1.9761l8.9283-5.1552-3.0317 11.319c-0.77308 2.8801 0.93707 5.8443 3.8172 6.6146 2.8801 0.77308 5.8429-0.93707 6.6132-3.8172l5.8291-21.752 15.996-9.2356 27.28 15.751v18.467l-15.923 15.925c-2.1098 2.1098-2.1098 5.5301 0 7.6398 2.1098 2.1056 5.5259 2.1056 7.6357 0l8.2875-8.2889v10.312c0 2.9807 2.4198 5.4005 5.4005 5.4005 2.9821 0 5.4005-2.4198 5.4005-5.4005v-10.312l8.2889 8.2889c2.1098 2.1056 5.5259 2.1056 7.6357 0 2.1098-2.1098 2.1098-5.5301 0-7.6398l-15.925-15.925v-18.467l27.281-15.751 15.996 9.2356 5.8277 21.752c0.7717 2.8801 3.7345 4.5902 6.6146 3.8172 2.8801-0.77033 4.5902-3.7345 3.8158-6.6146l-3.0317-11.319 8.9297 5.1552c2.5811 1.491 5.887 0.60496 7.3766-1.9761 1.491-2.5852 0.60495-5.887-1.9761-7.3766l-8.9297-5.1566 11.321-3.0344c2.8801-0.77032 4.5902-3.7331 3.8199-6.6146-0.77445-2.8801-3.7345-4.5902-6.6146-3.8158zm-103.11-28.673 16.479 9.5154-16.479 9.5154zm21.879 37.9-16.479-9.5154 16.479-9.5154zm0-37.739-16.479-9.5154 16.479-9.5154zm10.801-19.031 16.48 9.5154-16.48 9.5154zm0 56.77v-19.031l16.48 9.5154zm21.88-18.869-16.48-9.5154 16.48-9.5154z" fill="#7ed8f6"/>
   <path d="m53.93 193.91c0 3.5526-2.8801 6.4327-6.4327 6.4327-3.554 0-6.4327-2.8801-6.4327-6.4327s2.8787-6.4327 6.4327-6.4327c3.5526 0 6.4327 2.8801 6.4327 6.4327z" fill="#5ecef4"/>
   <path d="m-30.772 244.63c0 3.5526-2.8801 6.4327-6.4327 6.4327-3.5526 0-6.4327-2.8801-6.4327-6.4327s2.8801-6.4327 6.4327-6.4327c3.5526 0 6.4327 2.8801 6.4327 6.4327z" fill="#7ed8f6"/>
   <path d="m79.753 244.63c0 3.5526-2.8801 6.4327-6.4327 6.4327s-6.4327-2.8801-6.4327-6.4327 2.8801-6.4327 6.4327-6.4327 6.4327 2.8801 6.4327 6.4327z" fill="#5ecef4"/>
   <path d="m-3.9652 193.91c0 3.5526-2.8801 6.4327-6.4327 6.4327-3.5526 0-6.4327-2.8801-6.4327-6.4327s2.8801-6.4327 6.4327-6.4327c3.5526 0 6.4327 2.8801 6.4327 6.4327z" fill="#7ed8f6"/>
   <path d="m53.438 295.36c0 3.5526-2.8801 6.4327-6.4327 6.4327s-6.4327-2.8801-6.4327-6.4327 2.8801-6.4327 6.4327-6.4327 6.4327 2.8801 6.4327 6.4327z" fill="#5ecef4"/>
   <path d="m-4.4572 295.36c0 3.5526-2.8801 6.4327-6.4327 6.4327-3.5526 0-6.4327-2.8801-6.4327-6.4327s2.8801-6.4327 6.4327-6.4327c3.5526 0 6.4327 2.8801 6.4327 6.4327z" fill="#7ed8f6"/>
   <path d="m93.888 263.79-21.752 5.8291-15.998-9.2356v-31.502l15.998-9.2356 21.752 5.8291c2.8801 0.77446 5.8401-0.93569 6.6146-3.8158 0.77033-2.8815-0.93982-5.8443-3.8199-6.6146l-11.321-3.0344 8.9297-5.1566c2.5811-1.4897 3.4671-4.7914 1.9761-7.3766-1.4897-2.5811-4.7956-3.4671-7.3766-1.9761l-8.9297 5.1552 3.0317-11.319c0.77446-2.8801-0.93569-5.8443-3.8158-6.6146-2.8842-0.77308-5.8429 0.93706-6.6146 3.8172l-5.8277 21.752-15.996 9.2356-27.281-15.751v-18.467l15.925-15.925c2.1098-2.1098 2.1098-5.5301 0-7.6398-2.1098-2.1056-5.5259-2.1056-7.6357 0l-8.2889 8.2889v-10.312c0-2.9807-2.4185-5.4005-5.4005-5.4005v180.62c2.9821 0 5.4005-2.4198 5.4005-5.4005v-10.312l8.2889 8.2889c2.1098 2.1056 5.5259 2.1056 7.6357 0 2.1098-2.1098 2.1098-5.5301 0-7.6398l-15.925-15.925v-18.467l27.281-15.751 15.996 9.2356 5.8277 21.752c0.7717 2.8801 3.7345 4.5902 6.6146 3.8172 2.8801-0.77033 4.5902-3.7345 3.8158-6.6146l-3.0317-11.319 8.9297 5.1552c2.5811 1.491 5.887 0.60496 7.3766-1.9761 1.491-2.5852 0.60495-5.887-1.9761-7.3766l-8.9297-5.1566 11.321-3.0344c2.8801-0.77032 4.5902-3.7331 3.8199-6.6146-0.77445-2.8801-3.7345-4.5902-6.6146-3.8158zm-70.43-47.542 16.48 9.5154-16.48 9.5154zm0 56.77v-19.031l16.48 9.5154zm21.88-18.869-16.48-9.5154 16.48-9.5154z" fill="#5ecef4"/>
  </g>
 </g>
</svg>
